<svg id="Layer_1" data-name="Layer 1" xmlns="http://www.w3.org/2000/svg" viewBox="0 0 374.56 122.82"><defs><style>.cls-1{fill:#2c7ef6;}.cls-2{font-size:27px;fill:#231f20;font-family:Poppins-Bold, Poppins;font-weight:700;}</style></defs><path class="cls-1" d="M84.87,52.28s6.58-1.43,8.49-4.49S95.51,40,94.58,36.28a16.08,16.08,0,0,1-.39-8c0-.15.09-.34.16-.56a16.54,16.54,0,0,1,3.88-6.19c2.21-2.26,10.39-6.44,22.35-9a19.14,19.14,0,0,0-6.21,7.29c-2.37,5-1.9,10.17-1.53,14.33a39,39,0,0,0,.6,4.17,27.88,27.88,0,0,0-2.7,1.28c-2.91,1.59-7.06,3.85-8.69,8.11a11.49,11.49,0,0,0-.5,6.16l-1,.24c-.84.18-2.06.3-2.72.44a3.23,3.23,0,0,0-.4.11,2.89,2.89,0,0,0-.54.21,5.19,5.19,0,0,0-.47.23c-.8.45-2.09,3-2.09,3l-2.85-2.25a50.86,50.86,0,0,0-6.58-3.57"/><path class="cls-1" d="M62,28.11A18.12,18.12,0,0,1,50.8,15.93a12,12,0,0,0-1,1.16,14.06,14.06,0,0,0-2.64,7.1,15.59,15.59,0,0,0,.46,5.59c2.07,7.89,5.61,9.67,5.61,9.67a25.54,25.54,0,0,0,5.93-5.81A23.18,23.18,0,0,0,62,28.11"/><path class="cls-1" d="M81.25,40.65a20.73,20.73,0,0,1,1-5.82,22,22,0,0,1,2.36-5.11H75.49L72.66,29s1.73,4,3.38,7a13.39,13.39,0,0,0,5.21,4.7"/><path class="cls-1" d="M80.22,37.74a22.2,22.2,0,0,0,3.94,4.2,21.86,21.86,0,0,0,4.58,2.91L82,49.49l-1.7,2s1.8-5.8,1.37-9.05a11.53,11.53,0,0,0-1.44-4.73"/><path class="cls-1" d="M115.17,31.73c.1.62.2,1.26.28,1.92a44.91,44.91,0,0,1,.26,7.65l-5.41,2.64a57.25,57.25,0,0,1,2.44,16.54A52.26,52.26,0,1,1,60.48,8.23,53.87,53.87,0,0,1,95,21.31a13.65,13.65,0,0,1,3.44-4,9.31,9.31,0,0,1,3.69-2.1A63.67,63.67,0,0,0,61.41,0a61.41,61.41,0,1,0,53.76,31.73Z"/><path class="cls-1" d="M91.85,56.09A56.37,56.37,0,0,0,81.4,50.83s1.18-2.36,1.18-8.41S75.67,25.66,64.47,25.66s-15.59,7.7-15.59,7.7.06,6.82-2.46,10.41c-1.26,1.78-3.93,3.85-10.37,4.2.36,2.48,1.63,8.68,6.82,13.11,7.14,6.12,18.79,6.4,28.64.23a38,38,0,0,1,2.66,10.31c.6,5.69-.7,19.18-7.68,28.62-6.29,8.5-14.07,12.89-26,13.39,0,0,16,8.48,21.85,9.05,14.59,1.41,39.21-7.92,42.68-40.17C106.2,71.12,97,59.64,91.85,56.09ZM61.51,46.6c-2.35,1.45-4.77,1.28-5.74.22-1.29-1.42-1.64-6.21.72-7.65,3.42-2.09,7.79,2.4,7.79,2.4S63.86,45.15,61.51,46.6Z"/><path class="cls-1" d="M42.07,109.39a52.27,52.27,0,0,1-4-96.11c2.47-5.34-.58-6.8-3.55-7.08a61.42,61.42,0,0,0,3.33,111.92C36.11,112.86,39.06,110.48,42.07,109.39Z"/><text class="cls-2" transform="translate(141.66 75.51)">Office &amp; Dragons</text></svg>