<svg width="197" height="36" viewBox="0 0 197 36" fill="none" xmlns="http://www.w3.org/2000/svg">
<path d="M50.0274 20.2654V15.1266H47.8789V11.8459H50.0274V7.37476H54.2083V11.8459H57.7212V15.1266H54.2083V20.4978C54.1752 21.0345 54.3124 21.568 54.6004 22.0221C54.7457 22.2064 54.9345 22.3519 55.1497 22.4456C55.365 22.5393 55.6001 22.5783 55.8341 22.5591C56.2134 22.5685 56.5902 22.4942 56.9375 22.3414C57.2427 22.1988 57.5342 22.0287 57.8086 21.8332L59.4924 24.3884C58.2887 25.3996 56.7674 25.9547 55.1954 25.9562C53.8983 25.9562 52.8724 25.7141 52.1179 25.2301C51.3734 24.7596 50.8065 24.055 50.5064 23.227C50.1705 22.2765 50.0083 21.2733 50.0274 20.2654Z" fill="#1C1F2A"/>
<path d="M71.2483 21.3401L72.9614 23.9822C72.7677 24.1178 72.4241 24.3405 71.9307 24.6502C71.3135 25.0157 70.6558 25.3079 69.9709 25.5209C69.0019 25.8142 67.9924 25.9515 66.9803 25.9276C65.5874 25.9645 64.2082 25.6447 62.9737 24.9985C61.8791 24.4073 60.981 23.5092 60.3899 22.4145C59.7733 21.2431 59.4636 19.9345 59.4898 18.611C59.4808 17.3722 59.7643 16.1487 60.3172 15.04C60.8585 13.948 61.693 13.0282 62.7272 12.3834C63.8677 11.6923 65.1832 11.3446 66.5162 11.3819C67.8226 11.3362 69.1125 11.6852 70.2177 12.3833C71.2245 13.0631 72.0115 14.0216 72.4825 15.1414C73.0169 16.4236 73.2789 17.8028 73.2519 19.1916V19.8884H63.5544C63.5724 20.2598 63.6698 20.623 63.8401 20.9536C64.0104 21.2841 64.2495 21.5743 64.5415 21.8046C65.2683 22.3965 66.1895 22.6967 67.1256 22.6466C68.0305 22.6808 68.9321 22.5173 69.7674 22.1676C70.2859 21.9387 70.7817 21.6616 71.2483 21.3401ZM63.5544 17.2173H69.3031C69.2971 16.8066 69.1925 16.4034 68.9981 16.0415C68.7824 15.6314 68.4618 15.2857 68.0691 15.0398C67.5927 14.7528 67.0427 14.6116 66.4869 14.6336C65.9222 14.6143 65.3636 14.7551 64.8755 15.0398C64.4664 15.2841 64.1266 15.6289 63.8884 16.0415C63.6771 16.3979 63.562 16.803 63.5544 17.2173Z" fill="#1C1F2A"/>
<path d="M74.3555 23.9238L76.4169 21.2528C76.9322 21.7005 77.5284 22.0454 78.1734 22.2688C78.8448 22.5297 79.5578 22.6674 80.2782 22.6754C80.8021 22.6915 81.3244 22.6077 81.817 22.4285C82.0014 22.3679 82.1609 22.2485 82.271 22.0886C82.3812 21.9287 82.4358 21.7371 82.4267 21.5431C82.4302 21.4277 82.4101 21.3129 82.3677 21.2055C82.3252 21.0981 82.2614 21.0006 82.18 20.9187C81.9054 20.6918 81.5901 20.5194 81.2509 20.4107C80.7959 20.2365 80.1329 20.0333 79.2621 19.801C78.565 19.6077 77.889 19.3451 77.2443 19.0171C76.6171 18.706 76.0706 18.2538 75.6475 17.6961C75.2148 17.0925 74.9952 16.3622 75.0232 15.6201C75.0074 14.8143 75.2745 14.0285 75.7779 13.3991C76.3268 12.737 77.0367 12.2271 77.8394 11.9183C78.7722 11.5488 79.7686 11.3663 80.7719 11.3813C81.8063 11.3645 82.8378 11.4965 83.8348 11.7731C84.6903 12.0224 85.4993 12.4099 86.2299 12.9201L84.4591 15.6783C83.9857 15.3632 83.4795 15.1004 82.9494 14.8944C82.3291 14.655 81.6687 14.5368 81.0039 14.5462C80.5231 14.5117 80.0419 14.607 79.6105 14.822C79.4781 14.895 79.3678 15.0022 79.2911 15.1325C79.2144 15.2627 79.1742 15.4113 79.1748 15.5624C79.1748 16.0078 79.4797 16.3368 80.0896 16.5495C80.6993 16.7626 81.5074 17.0046 82.5138 17.2754C83.8879 17.6432 84.8944 18.1706 85.5333 18.8576C86.1937 19.6034 86.5374 20.5772 86.4914 21.5723C86.5232 22.4711 86.2118 23.3482 85.6203 24.0257C85.0095 24.6939 84.2336 25.1895 83.3705 25.4628C82.4297 25.7757 81.4441 25.9327 80.4526 25.9275C79.2818 25.9345 78.1167 25.7632 76.9974 25.4194C76.0109 25.1366 75.1056 24.6241 74.3555 23.9238Z" fill="#1C1F2A"/>
<path d="M87.5645 23.9236L89.6259 21.2528C90.1412 21.7005 90.7374 22.0454 91.3824 22.2688C92.0539 22.5297 92.7669 22.6674 93.4872 22.6754C94.0111 22.6915 94.5334 22.6077 95.026 22.4285C95.2104 22.3679 95.3699 22.2485 95.48 22.0886C95.5901 21.9287 95.6448 21.7371 95.6357 21.5431C95.6391 21.4277 95.6191 21.3129 95.5767 21.2055C95.5342 21.0982 95.4704 21.0006 95.389 20.9187C95.1144 20.6919 94.7991 20.5194 94.4599 20.4107C94.0049 20.2365 93.342 20.0333 92.4711 19.801C91.774 19.6077 91.098 19.3451 90.4533 19.0171C89.8262 18.706 89.2796 18.2538 88.8566 17.6961C88.4238 17.0925 88.2041 16.3622 88.2321 15.6201C88.2164 14.8143 88.4835 14.0285 88.9869 13.3991C89.5358 12.737 90.2457 12.2271 91.0483 11.9183C91.9812 11.5488 92.9776 11.3663 93.9809 11.3813C95.0153 11.3645 96.0468 11.4965 97.0438 11.7731C97.8993 12.0224 98.7083 12.4099 99.4389 12.9201L97.6681 15.6783C97.1947 15.3632 96.6885 15.1004 96.1584 14.8944C95.5381 14.655 94.8777 14.5368 94.2129 14.5462C93.7321 14.5117 93.2509 14.607 92.8195 14.822C92.6871 14.895 92.5768 15.0022 92.5001 15.1325C92.4234 15.2627 92.3833 15.4113 92.3838 15.5624C92.3838 16.0078 92.6887 16.3368 93.2986 16.5495C93.9084 16.7626 94.7164 17.0046 95.7228 17.2754C97.0969 17.6432 98.1034 18.1706 98.7423 18.8576C99.4027 19.6034 99.7464 20.5772 99.7004 21.5723C99.7322 22.4711 99.4208 23.3482 98.8294 24.0257C98.2186 24.6939 97.4426 25.1895 96.5795 25.4628C95.6388 25.7757 94.6531 25.9327 93.6617 25.9275C92.4908 25.9345 91.3257 25.7632 90.2064 25.4194C89.22 25.1366 88.3146 24.624 87.5645 23.9236Z" fill="#1C1F2A"/>
<path d="M109.774 25.4626L109.658 24.1852C108.69 25.3079 107.316 25.8693 105.536 25.8693C104.848 25.8605 104.166 25.7378 103.518 25.5063C102.721 25.2446 102.035 24.7235 101.569 24.0261C101.103 23.3288 100.885 22.4954 100.948 21.6592C100.918 20.6924 101.209 19.7428 101.776 18.9591C102.355 18.2029 103.134 17.6245 104.026 17.2896C105.045 16.8993 106.129 16.7072 107.22 16.7234C107.703 16.7234 108.192 16.7331 108.686 16.7524C109.012 16.7552 109.337 16.7843 109.658 16.8396V16.5492C109.681 16.2499 109.618 15.9504 109.477 15.6856C109.336 15.4208 109.122 15.2018 108.86 15.0541C108.305 14.7484 107.679 14.5932 107.046 14.604C106.266 14.5832 105.49 14.7012 104.752 14.9526C104.2 15.1506 103.674 15.4138 103.184 15.7366L101.471 13.1816C102.171 12.6603 102.944 12.2445 103.765 11.9476C105.007 11.527 106.316 11.3352 107.626 11.3815C109.697 11.3815 111.226 11.9379 112.213 13.0508C113.201 14.164 113.694 15.6593 113.694 17.5366V25.4626H109.774ZM109.658 20.5559V19.4527C109.561 19.4337 109.378 19.4092 109.107 19.38C108.798 19.3492 108.488 19.3347 108.178 19.3365C107.016 19.3365 106.194 19.501 105.71 19.8301C105.478 19.9795 105.29 20.1865 105.163 20.4308C105.035 20.6751 104.974 20.9484 104.984 21.2237C104.984 22.3466 105.661 22.9079 107.016 22.9076C107.672 22.9086 108.309 22.6944 108.831 22.2979C109.102 22.0987 109.32 21.8352 109.464 21.5312C109.609 21.2272 109.675 20.8921 109.658 20.5559H109.658Z" fill="#1C1F2A"/>
<path d="M116.279 25.4631V11.8463H120.286L120.431 13.5593C120.837 13.0411 121.322 12.5903 121.868 12.2237C122.572 11.7712 123.399 11.5481 124.235 11.585C124.55 11.5817 124.865 11.6011 125.178 11.643C125.441 11.6825 125.699 11.7507 125.947 11.8464L125.279 15.5336C124.789 15.3892 124.28 15.3206 123.77 15.3303C123.332 15.3113 122.894 15.3798 122.483 15.5319C122.072 15.6839 121.695 15.9164 121.374 16.2158C120.765 16.8066 120.46 17.6437 120.46 18.7272V25.4631H116.279Z" fill="#1C1F2A"/>
<path d="M135.3 25.4626L135.184 24.1852C134.216 25.3079 132.841 25.8693 131.061 25.8693C130.373 25.8605 129.691 25.7378 129.043 25.5063C128.246 25.2448 127.56 24.7237 127.094 24.0263C126.629 23.3289 126.41 22.4954 126.474 21.6592C126.443 20.6924 126.734 19.7429 127.301 18.9591C127.88 18.2029 128.66 17.6245 129.551 17.2898C130.57 16.8995 131.654 16.7073 132.745 16.7236C133.228 16.7236 133.717 16.7332 134.211 16.7526C134.537 16.7554 134.862 16.7845 135.184 16.8397V16.5494C135.206 16.2501 135.143 15.9506 135.002 15.6858C134.861 15.421 134.647 15.202 134.386 15.0542C133.83 14.7485 133.205 14.5934 132.571 14.6042C131.792 14.5834 131.015 14.7014 130.277 14.9527C129.725 15.1506 129.199 15.4138 128.709 15.7366L126.997 13.1816C127.697 12.6603 128.469 12.2445 129.29 11.9476C130.532 11.527 131.841 11.3352 133.152 11.3815C135.222 11.3815 136.751 11.9379 137.739 13.0508C138.726 14.164 139.22 15.6593 139.219 17.5366V25.4626H135.3ZM135.184 20.5559V19.4527C135.086 19.4337 134.903 19.4092 134.632 19.38C134.323 19.3492 134.013 19.3347 133.703 19.3365C132.541 19.3365 131.719 19.501 131.235 19.8301C131.004 19.9795 130.815 20.1865 130.688 20.4308C130.561 20.6751 130.499 20.9484 130.509 21.2236C130.509 22.3466 131.187 22.9079 132.541 22.9076C133.197 22.9086 133.834 22.6944 134.356 22.2979C134.627 22.0986 134.845 21.8352 134.989 21.5312C135.134 21.2272 135.201 20.8921 135.184 20.5559Z" fill="#1C1F2A"/>
<path d="M151.501 20.9339L153.94 23.6629C153.309 24.3329 152.554 24.8752 151.718 25.26C150.694 25.7272 149.577 25.9555 148.452 25.9277C147.114 25.9558 145.792 25.6303 144.62 24.984C143.537 24.3762 142.643 23.4822 142.036 22.3999C141.402 21.2497 141.082 19.9531 141.107 18.6401C141.09 17.3695 141.411 16.1174 142.039 15.0125C142.667 13.9077 143.578 12.9901 144.678 12.3544C145.825 11.6946 147.129 11.3585 148.452 11.3819C149.562 11.357 150.665 11.5646 151.69 11.9914C152.558 12.3618 153.336 12.9166 153.968 13.6174L151.443 16.3465C151.114 15.9823 150.732 15.6691 150.31 15.4175C149.768 15.1229 149.156 14.9823 148.539 15.0109C147.929 14.9966 147.33 15.1744 146.827 15.519C146.343 15.8578 145.957 16.3186 145.709 16.8546C145.446 17.4129 145.312 18.0231 145.317 18.6402C145.316 19.2381 145.45 19.8285 145.709 20.3677C145.961 20.9088 146.346 21.378 146.827 21.7323C147.323 22.0946 147.925 22.2833 148.539 22.2693C149.168 22.2911 149.791 22.1405 150.34 21.8337C150.766 21.5882 151.157 21.2855 151.501 20.9339Z" fill="#1C1F2A"/>
<path d="M156.951 20.2654V15.1266H154.803V11.8459H156.951V7.37476H161.132V11.8459H164.645V15.1266H161.132V20.4978C161.099 21.0345 161.236 21.568 161.524 22.0221C161.669 22.2064 161.858 22.3519 162.073 22.4456C162.289 22.5394 162.524 22.5783 162.758 22.5591C163.137 22.5685 163.514 22.4942 163.861 22.3414C164.166 22.1988 164.458 22.0287 164.732 21.8332L166.416 24.3884C165.213 25.3995 163.691 25.9546 162.119 25.9562C160.822 25.9562 159.796 25.7141 159.042 25.2301C158.297 24.7596 157.73 24.0549 157.43 23.227C157.094 22.2765 156.932 21.2734 156.951 20.2654Z" fill="#1C1F2A"/>
<path d="M168.176 25.4625V20.8462H172.908V25.4625H168.176Z" fill="#1C1F2A"/>
<path d="M175.631 9.84281V6.09741H180.102V9.84281H175.631ZM175.776 25.4627V11.846H179.957V25.4627H175.776Z" fill="#B21F29"/>
<path d="M181.948 18.6401C181.933 17.3606 182.253 16.0996 182.876 14.9819C183.483 13.8922 184.37 12.9849 185.446 12.3544C186.617 11.7162 187.93 11.3818 189.264 11.3818C190.598 11.3818 191.91 11.7162 193.082 12.3544C194.156 12.9827 195.039 13.8908 195.637 14.9819C196.237 16.1077 196.551 17.3641 196.551 18.6401C196.551 19.9161 196.237 21.1724 195.637 22.2982C195.037 23.3917 194.154 24.3042 193.082 24.9406C191.913 25.588 190.6 25.9277 189.264 25.9277C187.928 25.9277 186.614 25.588 185.446 24.9406C184.371 24.302 183.485 23.3903 182.876 22.2982C182.253 21.1806 181.933 19.9196 181.948 18.6401ZM189.264 22.2982C189.9 22.3221 190.527 22.1387 191.05 21.7757C191.526 21.4244 191.902 20.9537 192.138 20.4111C192.389 19.8544 192.518 19.2506 192.516 18.6401C192.519 18.0342 192.39 17.4349 192.138 16.8835C191.899 16.3468 191.523 15.8817 191.05 15.5336C190.527 15.1705 189.9 14.9871 189.264 15.0109C188.629 14.9927 188.004 15.1756 187.478 15.5336C186.991 15.8746 186.605 16.341 186.361 16.8835C186.109 17.4348 185.98 18.0342 185.983 18.6401C185.981 19.2506 186.11 19.8545 186.361 20.4111C186.601 20.9595 186.988 21.4315 187.478 21.7757C188.004 22.1336 188.629 22.3164 189.264 22.2982Z" fill="#B21F29"/>
<path d="M19.0751 18.8799L8.51562 25.4472L18.9796 31.9999L29.5384 25.3875L19.0751 18.8799Z" fill="#1C1F2A"/>
<path d="M19.1276 10.7114L29.5891 17.2173L38.0551 11.9154L19.0276 0L0 11.9154L8.566 17.2798L19.1276 10.7114Z" fill="#B21F29"/>
</svg>
